<?xml version="1.0" encoding="utf-8"?>
<!-- Generator: Adobe Illustrator 27.5.0, SVG Export Plug-In . SVG Version: 6.00 Build 0)  -->
<svg version="1.1" xmlns="http://www.w3.org/2000/svg" xmlns:xlink="http://www.w3.org/1999/xlink" x="0px" y="0px"
	 viewBox="0 0 500 500" style="enable-background:new 0 0 500 500;" xml:space="preserve">
<g id="Floor">
	<ellipse id="Floor_1_" style="fill:#F0F0F0;" cx="250" cy="357.442" rx="239.421" ry="125.966"/>
</g>
<g id="Shadows">
	<ellipse id="Shadow_12_" style="fill:#E0E0E0;" cx="366.737" cy="383.111" rx="70.718" ry="40.829"/>
	<path id="Shadow_2_" style="fill:#E0E0E0;" d="M41.984,388.371l4.04,2.333c1.273,0.735,3.338,0.735,4.611,0l241.94-139.684
		c1.273-0.735,1.273-1.927,0-2.662l-4.04-2.332c-1.273-0.735-3.338-0.735-4.611,0L41.984,385.709
		C40.71,386.444,40.71,387.636,41.984,388.371z"/>
</g>
<g id="Plants_2_">
	<g id="Plants_3_">
		<g id="XMLID_119_">
			<g id="XMLID_122_">
				<path id="XMLID_124_" style="fill:#27DEBF;" d="M398.289,347.198c0,0,0.15-17.614,5.439-31.848
					c5.29-14.233,14.596-24.423,24.684-27.467c10.088-3.044,20.775,7.341,11.202,16.215c-9.573,8.874-27.647,19.736-31.351,45.945
					L398.289,347.198z"/>
				<path id="XMLID_123_" style="opacity:0.15;" d="M398.289,347.198c0,0,0.15-17.614,5.439-31.848
					c5.29-14.233,14.596-24.423,24.684-27.467c10.088-3.044,20.775,7.341,11.202,16.215c-9.573,8.874-27.647,19.736-31.351,45.945
					L398.289,347.198z"/>
			</g>
			<g id="XMLID_120_">
				<path id="XMLID_121_" style="fill:#FFFFFF;" d="M402.481,344.534c-0.04,0.003-0.08,0.002-0.121-0.004
					c-0.32-0.043-0.544-0.338-0.5-0.659c4.167-30.427,22.547-47.373,31.684-52.082c0.285-0.15,0.639-0.035,0.788,0.252
					c0.148,0.288,0.036,0.64-0.252,0.788c-8.95,4.613-26.959,21.252-31.061,51.201C402.981,344.309,402.751,344.515,402.481,344.534
					z"/>
			</g>
		</g>
		<g id="XMLID_111_">
			<g id="XMLID_116_">
				<g id="XMLID_117_">
					<path id="XMLID_118_" style="fill:#27DEBF;" d="M397.457,364.085c0.254-2.549,0.046-4.662-0.533-7.136
						c-0.583-2.489-2.087-4.868-2.204-7.456c-0.095-2.081,1.204-4.435,2.678-5.842c1.521-1.451,3.536-2.464,4.561-4.299
						c1.05-1.878,0.824-4.185,1.317-6.279c0.541-2.296,2.006-4.36,3.995-5.629c1.989-1.269,4.478-1.728,6.788-1.251
						c2.173,0.448,4.097,1.66,6.087,2.64c2.072,1.021,4.175,1.631,6.488,1.261c2.472-0.396,4.899-0.794,7.414-0.787
						c4.232,0.012,9.565,1.44,11.017,5.921c0.358,1.106,0.505,2.334,0.115,3.424c-0.017,0.046-0.034,0.092-0.053,0.138
						c-1.227,3.035-5.09,3.652-7.579,5.139c-0.68,0.406-1.812,0.984-2.073,1.809c-0.261,0.828,0.453,1.947,0.806,2.71
						c0.905,1.958,2.211,3.845,2.329,6.065c0.169,3.172-2.485,6.225-5.155,7.572c-2.559,1.292-5.516,1.579-8.381,1.459
						c-1.422-0.06-2.973-0.181-4.141,0.632c-1.016,0.707-1.496,1.976-1.648,3.204c-0.153,1.228-0.037,2.476-0.154,3.708
						c-0.37,3.898-3.197,7.378-6.831,8.834c-3.011,1.206-6.46,1.068-9.456-0.11c-2.481-0.976-4.614-3.966-5.095-6.567
						C397.212,370.332,397.165,367.02,397.457,364.085z"/>
				</g>
			</g>
			<g id="XMLID_114_">
				<path id="XMLID_115_" style="fill:#FFFFFF;" d="M398.482,371.336c-0.013-0.001-0.026-0.002-0.038-0.004
					c-0.256-0.036-0.436-0.273-0.399-0.531c4.099-29.267,33.466-37.005,40.515-37.352c0.255-0.01,0.479,0.187,0.493,0.446
					c0.013,0.259-0.187,0.48-0.446,0.493c-6.895,0.34-35.62,7.909-39.632,36.544C398.941,371.177,398.724,371.351,398.482,371.336z"
					/>
			</g>
			<g id="XMLID_112_">
				<path id="XMLID_113_" style="fill:#FFFFFF;" d="M429.915,352.927c-0.092-0.006-0.184-0.039-0.262-0.1
					c-0.084-0.067-8.616-6.648-21.023-3.247c-0.25,0.065-0.509-0.078-0.578-0.329c-0.069-0.251,0.079-0.509,0.329-0.578
					c12.886-3.528,21.766,3.347,21.855,3.417c0.204,0.161,0.237,0.456,0.077,0.66C430.213,352.874,430.063,352.936,429.915,352.927z
					"/>
			</g>
		</g>
	</g>
</g>
<g id="Clouds">
	<g id="Clouds_3_">
		<g>
			<g id="XMLID_46_">
				<path style="fill:#EBEBEB;" d="M93.929,77.672l-3.441,1.987v-9.218c-0.041-9.548-4.966-13.031-11.234-9.5l0,0
					c-6.268,3.531-11.748,10.647-12.24,20.234l-0.09,1.756c-1.328-1.038-3.107-1.116-5.115,0.015h0
					c-7.023,3.644-8.454,10.193-8.808,17.091l-0.041,0.798l-5.778,3.336c-2.97,1.673-5.567,6.632-5.8,11.174
					c-0.233,4.543,1.986,7.197,4.956,5.524l46.747-26.989c2.97-1.673,5.567-6.385,5.8-10.928
					C99.118,78.409,96.899,75.999,93.929,77.672z"/>
			</g>
			<g id="XMLID_37_">
				<path style="fill:#EBEBEB;" d="M149.148,91.316l-6.621,3.822c0.052-0.385,0.093-0.862,0.113-1.243l0.13-2.541
					c0.232-4.521-1.976-6.836-4.932-5.171c-1.197,0.674-2.33,1.903-3.273,3.421c-0.173-5.782-3.3-8.578-7.39-6.274
					c-4.423,2.491-8.289,9.994-8.636,16.758c0,0,0.003,2.583,0.003,3.697c0,1.114,0.005,3.022,0.228,4.643l-5.499,3.175
					c-1.64,0.924-3.073,3.628-3.202,6.136c-0.129,2.508,1.096,4.044,2.736,3.12l35.878-20.714c1.64-0.924,3.073-3.454,3.202-5.962
					C152.013,91.677,150.788,90.393,149.148,91.316z"/>
			</g>
		</g>
	</g>
</g>
<g id="Screen">
	<g id="Weather">
		<path style="opacity:0.9;fill:#27DEBF;" d="M36.659,195.294v13.614v140.429c0,1.185,0.261,2.309,0.702,3.233
			c0.222,0.482,0.502,0.904,0.824,1.245c0.301,0.361,0.555,0.529,1.044,0.843c0.113,0.073,7.597,4.373,7.818,4.513
			c-0.06-0.04-0.327-0.164-0.809-0.606c-0.482-0.442-0.844-0.984-1.125-1.606c-0.361-0.863-0.582-1.887-0.642-3.092V213.486v-13.755
			c0-1.807,0.609-3.792,1.58-5.604l-7.786-4.496C37.276,191.457,36.659,193.465,36.659,195.294z"/>
		<path style="opacity:0.9;fill:#27DEBF;" d="M36.659,195.294v13.614v140.429c0,1.185,0.261,2.309,0.702,3.233
			c0.222,0.482,0.502,0.904,0.824,1.245c0.301,0.361,0.555,0.529,1.044,0.843c0.113,0.073,7.597,4.373,7.818,4.513
			c-0.06-0.04-0.327-0.164-0.809-0.606c-0.482-0.442-0.844-0.984-1.125-1.606c-0.361-0.863-0.582-1.887-0.642-3.092V213.486v-13.755
			c0-1.807,0.609-3.792,1.58-5.604l-7.786-4.496C37.276,191.457,36.659,193.465,36.659,195.294z"/>
		<path id="XMLID_13_" style="fill:#27DEBF;" d="M295.197,55.07v155.621c0,3.915-2.751,8.654-6.125,10.602L50.594,358.988
			c-0.703,0.402-1.405,0.602-2.028,0.582c-0.261,0-0.522-0.04-0.783-0.1c-0.181-0.04-0.362-0.1-0.523-0.181
			c-0.12-0.06-0.221-0.12-0.321-0.181c-0.12-0.08-0.241-0.161-0.361-0.241c-0.12-0.1-0.241-0.181-0.341-0.301
			c-0.482-0.442-0.844-0.984-1.125-1.606c-0.402-0.904-0.643-1.968-0.643-3.092V199.732c0-3.896,2.751-8.655,6.125-10.602
			L289.072,51.536c1.587-0.904,3.012-1.044,4.117-0.522c0.18,0.08,0.361,0.181,0.522,0.301c0.02,0.02,0.04,0.04,0.04,0.04
			c0.16,0.121,0.281,0.241,0.402,0.402c0.08,0.06,0.121,0.14,0.18,0.221c0.08,0.1,0.161,0.201,0.201,0.321
			c0.161,0.241,0.281,0.502,0.361,0.783c0.06,0.161,0.121,0.341,0.141,0.542c0.02,0.04,0.04,0.08,0.02,0.121
			c0.06,0.181,0.08,0.361,0.1,0.562C295.177,54.548,295.197,54.809,295.197,55.07z"/>
		<g id="XMLID_398_" style="opacity:0.7;">
			<path style="fill:#FFFFFF;" d="M295.197,55.07v155.621c0,3.915-2.751,8.654-6.125,10.602L50.594,358.988
				c-0.703,0.402-1.405,0.602-2.028,0.582c-0.261,0-0.522-0.04-0.783-0.1c-0.181-0.04-0.362-0.1-0.523-0.181
				c-0.12-0.06-0.221-0.12-0.321-0.181c-0.12-0.08-0.241-0.161-0.361-0.241c-0.12-0.1-0.241-0.181-0.341-0.301
				c-0.482-0.442-0.844-0.984-1.125-1.606c-0.402-0.904-0.643-1.968-0.643-3.092V199.732c0-3.896,2.751-8.655,6.125-10.602
				L289.072,51.536c1.587-0.904,3.012-1.044,4.117-0.522c0.18,0.08,0.361,0.181,0.522,0.301c0.02,0.02,0.04,0.04,0.04,0.04
				c0.16,0.121,0.281,0.241,0.402,0.402c0.08,0.06,0.121,0.14,0.18,0.221c0.08,0.1,0.161,0.201,0.201,0.321
				c0.161,0.241,0.281,0.502,0.361,0.783c0.06,0.161,0.121,0.341,0.141,0.542c0.02,0.04,0.04,0.08,0.02,0.121
				c0.06,0.181,0.08,0.361,0.1,0.562C295.177,54.548,295.197,54.809,295.197,55.07z"/>
		</g>
		<path style="fill:#27DEBF;" d="M285.699,46.757c-1.125-0.683-2.691-0.663-4.437,0.361L42.763,184.712
			c-0.44,0.254-0.867,0.558-1.28,0.9c-0.066,0.055-0.126,0.123-0.192,0.179c-0.35,0.305-0.694,0.626-1.017,0.982
			c-0.027,0.03-0.051,0.064-0.078,0.094c-0.734,0.825-1.392,1.765-1.933,2.765c0,0,0,0,0,0.001l7.786,4.496
			c0.542-1.012,1.196-1.962,1.939-2.798c0.033-0.037,0.062-0.078,0.096-0.115c0.323-0.355,0.663-0.678,1.013-0.983
			c0.071-0.062,0.136-0.135,0.208-0.195c0.414-0.342,0.841-0.648,1.281-0.903c0.002-0.002,0.005-0.004,0.008-0.006L289.072,51.536
			c1.587-0.903,3.012-1.044,4.117-0.522C291.883,50.331,286.803,47.419,285.699,46.757z"/>
		<g style="opacity:0.8;">
			<path style="fill:#FFFFFF;" d="M285.699,46.757c-1.125-0.683-2.691-0.663-4.437,0.361L42.763,184.712
				c-0.44,0.254-0.867,0.558-1.28,0.9c-0.066,0.055-0.126,0.123-0.192,0.179c-0.35,0.305-0.694,0.626-1.017,0.982
				c-0.027,0.03-0.051,0.064-0.078,0.094c-0.734,0.825-1.392,1.765-1.933,2.765c0,0,0,0,0,0.001l7.786,4.496
				c0.542-1.012,1.196-1.962,1.939-2.798c0.033-0.037,0.062-0.078,0.096-0.115c0.323-0.355,0.663-0.678,1.013-0.983
				c0.071-0.062,0.136-0.135,0.208-0.195c0.414-0.342,0.841-0.648,1.281-0.903c0.002-0.002,0.005-0.004,0.008-0.006L289.072,51.536
				c1.587-0.903,3.012-1.044,4.117-0.522C291.883,50.331,286.803,47.419,285.699,46.757z"/>
		</g>
		<polygon style="opacity:0.2;fill:#27DEBF;" points="38.264,189.633 38.264,189.633 38.264,189.632 		"/>
		<g>
			<g id="XMLID_3521_">
				<path id="XMLID_3522_" style="fill:#455A64;" d="M59.635,195.035C59.635,195.034,59.634,195.034,59.635,195.035
					c-0.015-0.009-0.032-0.02-0.047-0.028c-0.707-0.397-1.651-0.344-2.688,0.254c-1.564,0.904-2.918,2.803-3.558,4.795
					c-0.254,0.789-0.362,1.207-0.362,1.971v0.613c0,2.071,2.31,4.857,3.389,5.852c0.026,0.024,0.051,0.043,0.079,0.059
					c0.002,0.003,0.004,0.003,0.007,0.003c0.261,0.161,0.615,0.07,0.755-0.219c0.931-1.907,3.645-7.651,3.645-9.877v-0.613
					C60.855,196.465,60.388,195.487,59.635,195.035z M55.408,201.643c-0.011-0.04-0.02-0.082-0.027-0.125
					c-0.021-0.113-0.031-0.235-0.031-0.365c0-1.154,0.81-2.559,1.811-3.136c0.113-0.064,0.223-0.117,0.33-0.156
					c0.093-0.034,0.183-0.058,0.27-0.073c0.706-0.121,1.211,0.363,1.211,1.274c0,1.154-0.81,2.559-1.811,3.136
					C56.317,202.686,55.609,202.43,55.408,201.643z"/>
			</g>
			<path style="opacity:0.8;fill:#27DEBF;" d="M64.792,195.657c0,1.046,0.783,1.442,1.749,0.885l16.19-9.347
				c0.966-0.558,1.749-1.858,1.749-2.904c0-1.046-0.783-1.442-1.749-0.885l-16.19,9.347C65.575,193.31,64.792,194.61,64.792,195.657
				z"/>
			<path style="opacity:0.2;" d="M64.792,195.657c0,1.046,0.783,1.442,1.749,0.885l16.19-9.347c0.966-0.558,1.749-1.858,1.749-2.904
				c0-1.046-0.783-1.442-1.749-0.885l-16.19,9.347C65.575,193.31,64.792,194.61,64.792,195.657z"/>
			<path style="fill:#27DEBF;" d="M65.841,200.13l12.36-7.2c0.579-0.335,1.049-0.097,1.049,0.531c0,0.628-0.47,1.408-1.049,1.743
				l-12.36,7.199c-0.58,0.335-1.049,0.097-1.05-0.531S65.262,200.465,65.841,200.13z"/>
			<g>
				<path id="XMLID_291_" style="fill:#FAFAFA;" d="M136.055,245.103l-2.459,1.366v-5.827c0-4.294-3.425-5.31-7.144-3.149l0,0
					c-3.719,2.162-6.733,7.395-6.733,11.689v0.786c-0.844-0.333-1.933-0.199-3.125,0.494h0c-2.676,1.555-4.845,5.321-4.845,8.411
					v0.357l-3.428,1.993c-1.762,1.024-3.191,3.504-3.191,5.539c0,2.035,1.429,2.854,3.191,1.83l27.735-16.121
					c1.762-1.024,3.191-3.504,3.191-5.539C139.246,244.898,137.817,244.079,136.055,245.103z"/>
				<path style="fill:#FFBDA7;" d="M121.573,240.331c-1.785,2.475-2.94,5.523-2.998,8.288c-0.839-0.042-1.785,0.241-2.716,0.781
					c-1.752,1.013-3.272,2.84-4.219,4.867c-1.877-0.257-3.122-1.927-3.122-4.659c0-4.185,2.973-9.293,6.644-11.41
					C118.309,236.386,120.917,237.366,121.573,240.331z"/>
			</g>
			
				<text transform="matrix(0.6495 -0.375 0 1 56.7454 256.696)" style="fill:#455A64; font-family:'Rubik-Bold'; font-size:51.5244px;">24°C</text>
			<g>
				<path style="fill:#27DEBF;" d="M52.979,268.218c-0.183,0-0.363-0.096-0.461-0.266c-0.148-0.255-0.06-0.58,0.194-0.727
					l90.835-52.444c0.254-0.149,0.58-0.06,0.727,0.194c0.148,0.255,0.06,0.58-0.194,0.727l-90.835,52.444
					C53.161,268.195,53.069,268.218,52.979,268.218z"/>
			</g>
			
				<text transform="matrix(0.6495 -0.375 0 1 78.9789 267.7004)" style="fill:#455A64; font-family:'Rubik-Bold'; font-size:8.5188px;">27°C</text>
			
				<text transform="matrix(0.6495 -0.375 0 1 78.9797 282.6823)" style="fill:#455A64; font-family:'Rubik-Bold'; font-size:8.5188px;">11°C</text>
			<g>
				
					<text transform="matrix(0.6495 -0.375 0 1 80.4166 300.6203)" style="fill:#455A64; font-family:'Rubik-Bold'; font-size:9.2255px;">75%</text>
			</g>
			<g>
				
					<text transform="matrix(0.6495 -0.375 0 1 112.4555 282.0622)" style="fill:#455A64; font-family:'Rubik-Bold'; font-size:9.2255px;">15 km/h</text>
			</g>
			<g>
				
					<text transform="matrix(0.6495 -0.375 0 1 61.6769 277.6896)" style="fill:#455A64; font-family:'Rubik-Bold'; font-size:8.5188px;">MAX</text>
			</g>
			<g>
				
					<text transform="matrix(0.6495 -0.375 0 1 61.6769 292.6721)" style="fill:#455A64; font-family:'Rubik-Bold'; font-size:8.5188px;">MIN</text>
			</g>
			<g>
				<g>
					<path id="XMLID_269_" style="fill:#27DEBF;" d="M74.369,299.9l-1.013,0.563v-2.4c0-1.769-1.411-2.188-2.943-1.297l0,0
						c-1.532,0.891-2.774,3.046-2.774,4.815v0.324c-0.348-0.137-0.796-0.082-1.287,0.203l0,0c-1.102,0.641-1.996,2.192-1.996,3.465
						v0.147l-1.412,0.821c-0.726,0.422-1.314,1.444-1.314,2.282c0,0.838,0.589,1.176,1.314,0.754l11.425-6.641
						c0.726-0.422,1.314-1.444,1.314-2.282C75.684,299.815,75.095,299.478,74.369,299.9z"/>
					<g>
						<g id="XMLID_344_">
							<g>
								<path id="XMLID_55_" style="fill:#27DEBF;" d="M65.602,311.768C65.602,311.768,65.602,311.768,65.602,311.768
									c0.002,0.002,0.005,0.005,0.007,0.007c0.107,0.1,0.249,0.117,0.406,0.027c0.236-0.136,0.44-0.479,0.537-0.861
									c0.038-0.151,0.055-0.232,0.055-0.386v-0.123c0-0.417-0.349-1.044-0.511-1.276c-0.004-0.006-0.008-0.01-0.012-0.014
									c0,0-0.001-0.001-0.001-0.001c-0.039-0.04-0.093-0.032-0.114,0.022c-0.14,0.357-0.55,1.433-0.55,1.881v0.123
									C65.418,311.445,65.488,311.655,65.602,311.768z"/>
							</g>
						</g>
						<g id="XMLID_373_">
							<g>
								<path id="XMLID_61_" style="fill:#27DEBF;" d="M69.147,309.721C69.147,309.721,69.147,309.721,69.147,309.721
									c0.002,0.002,0.005,0.005,0.007,0.007c0.107,0.1,0.249,0.117,0.406,0.027c0.236-0.137,0.44-0.479,0.537-0.861
									c0.038-0.151,0.055-0.232,0.055-0.386v-0.123c0-0.417-0.348-1.044-0.511-1.276c-0.004-0.005-0.008-0.01-0.012-0.014
									c0-0.001-0.001-0.001-0.001-0.001c-0.039-0.04-0.093-0.032-0.114,0.022c-0.141,0.357-0.55,1.433-0.55,1.881v0.123
									C68.963,309.398,69.034,309.608,69.147,309.721z"/>
							</g>
						</g>
						<g id="XMLID_488_">
							<g>
								<path id="XMLID_53_" style="fill:#27DEBF;" d="M72.692,307.674C72.692,307.674,72.692,307.674,72.692,307.674
									c0.002,0.002,0.005,0.005,0.007,0.007c0.107,0.1,0.249,0.117,0.406,0.027c0.236-0.137,0.44-0.479,0.537-0.861
									c0.038-0.151,0.055-0.232,0.055-0.386v-0.123c0-0.417-0.349-1.044-0.511-1.276c-0.004-0.005-0.008-0.01-0.012-0.014
									c0-0.001-0.001-0.001-0.001-0.001c-0.039-0.04-0.093-0.032-0.114,0.022c-0.141,0.357-0.55,1.433-0.55,1.881v0.123
									C72.508,307.351,72.579,307.561,72.692,307.674z"/>
							</g>
						</g>
					</g>
				</g>
				<g style="opacity:0.1;">
					<path id="XMLID_903_" d="M74.369,299.9l-1.013,0.563v-2.4c0-1.769-1.411-2.188-2.943-1.297l0,0
						c-1.532,0.891-2.774,3.046-2.774,4.815v0.324c-0.348-0.137-0.796-0.082-1.287,0.203l0,0c-1.102,0.641-1.996,2.192-1.996,3.465
						v0.147l-1.412,0.821c-0.726,0.422-1.314,1.444-1.314,2.282c0,0.838,0.589,1.176,1.314,0.754l11.425-6.641
						c0.726-0.422,1.314-1.444,1.314-2.282C75.684,299.815,75.095,299.478,74.369,299.9z"/>
					<g>
						<g id="XMLID_712_">
							<g>
								<path id="XMLID_43_" d="M65.602,311.768C65.602,311.768,65.602,311.768,65.602,311.768c0.002,0.002,0.005,0.005,0.007,0.007
									c0.107,0.1,0.249,0.117,0.406,0.027c0.236-0.136,0.44-0.479,0.537-0.861c0.038-0.151,0.055-0.232,0.055-0.386v-0.123
									c0-0.417-0.349-1.044-0.511-1.276c-0.004-0.006-0.008-0.01-0.012-0.014c0,0-0.001-0.001-0.001-0.001
									c-0.039-0.04-0.093-0.032-0.114,0.022c-0.14,0.357-0.55,1.433-0.55,1.881v0.123
									C65.418,311.445,65.488,311.655,65.602,311.768z"/>
							</g>
						</g>
						<g id="XMLID_592_">
							<g>
								<path id="XMLID_40_" d="M69.147,309.721C69.147,309.721,69.147,309.721,69.147,309.721c0.002,0.002,0.005,0.005,0.007,0.007
									c0.107,0.1,0.249,0.117,0.406,0.027c0.236-0.137,0.44-0.479,0.537-0.861c0.038-0.151,0.055-0.232,0.055-0.386v-0.123
									c0-0.417-0.348-1.044-0.511-1.276c-0.004-0.005-0.008-0.01-0.012-0.014c0-0.001-0.001-0.001-0.001-0.001
									c-0.039-0.04-0.093-0.032-0.114,0.022c-0.141,0.357-0.55,1.433-0.55,1.881v0.123
									C68.963,309.398,69.034,309.608,69.147,309.721z"/>
							</g>
						</g>
						<g id="XMLID_434_">
							<g>
								<path id="XMLID_36_" d="M72.692,307.674C72.692,307.674,72.692,307.674,72.692,307.674c0.002,0.002,0.005,0.005,0.007,0.007
									c0.107,0.1,0.249,0.117,0.406,0.027c0.236-0.137,0.44-0.479,0.537-0.861c0.038-0.151,0.055-0.232,0.055-0.386v-0.123
									c0-0.417-0.349-1.044-0.511-1.276c-0.004-0.005-0.008-0.01-0.012-0.014c0-0.001-0.001-0.001-0.001-0.001
									c-0.039-0.04-0.093-0.032-0.114,0.022c-0.141,0.357-0.55,1.433-0.55,1.881v0.123
									C72.508,307.351,72.579,307.561,72.692,307.674z"/>
							</g>
						</g>
					</g>
				</g>
			</g>
			<g>
				<g>
					<g>
						<path style="fill:#27DEBF;" d="M102.177,288.461c-0.407,0-0.787-0.097-1.124-0.292c-0.801-0.462-1.242-1.406-1.242-2.657
							c0-2.415,1.701-5.362,3.793-6.568c1.082-0.627,2.12-0.714,2.921-0.253c0.801,0.462,1.242,1.406,1.242,2.657
							c0,2.415-1.701,5.362-3.792,6.568C103.348,288.279,102.737,288.461,102.177,288.461z M105.398,279.144
							c-0.427,0-0.913,0.149-1.423,0.444l0,0c-1.887,1.089-3.421,3.747-3.421,5.925c0,0.974,0.309,1.689,0.871,2.013
							c0.559,0.322,1.334,0.235,2.179-0.252c1.886-1.089,3.421-3.747,3.421-5.925c0-0.975-0.309-1.689-0.871-2.013
							C105.932,279.207,105.678,279.144,105.398,279.144z M103.79,279.266h0.008H103.79z"/>
					</g>
					<g>
						<path style="fill:#27DEBF;" d="M101.311,284.649l3.702-4.258c0.175-0.201,0.501-0.027,0.431,0.23l-1.607,5.938l-0.534-2.348
							L101.311,284.649z"/>
					</g>
					<g>
						<path style="fill:#27DEBF;" d="M103.79,278.192c-0.205,0-0.371-0.166-0.371-0.371v-1.387c0-0.205,0.166-0.371,0.371-0.371
							s0.371,0.166,0.371,0.371v1.387C104.161,278.026,103.995,278.192,103.79,278.192z"/>
					</g>
					<g>
						<path style="fill:#27DEBF;" d="M103.79,290.739c-0.205,0-0.371-0.166-0.371-0.371v-1.387c0-0.205,0.166-0.371,0.371-0.371
							s0.371,0.166,0.371,0.371v1.387C104.161,290.573,103.995,290.739,103.79,290.739z"/>
					</g>
					<g>
						<path style="fill:#27DEBF;" d="M108.619,280.988c-0.128,0-0.253-0.067-0.322-0.186c-0.103-0.178-0.042-0.405,0.136-0.507
							l1.207-0.697c0.177-0.103,0.405-0.043,0.507,0.136c0.103,0.177,0.042,0.405-0.136,0.507l-1.207,0.697
							C108.746,280.971,108.682,280.988,108.619,280.988z"/>
					</g>
					<g>
						<path style="fill:#27DEBF;" d="M97.754,287.262c-0.128,0-0.253-0.067-0.322-0.186c-0.103-0.177-0.042-0.405,0.136-0.507
							l1.207-0.698c0.174-0.103,0.405-0.044,0.507,0.136c0.103,0.177,0.042,0.405-0.136,0.507l-1.207,0.698
							C97.882,287.246,97.817,287.262,97.754,287.262z"/>
					</g>
				</g>
				<g style="opacity:0.1;">
					<g>
						<g>
							<path d="M102.177,288.461c-0.407,0-0.787-0.097-1.124-0.292c-0.801-0.462-1.242-1.406-1.242-2.657
								c0-2.415,1.701-5.362,3.793-6.568c1.082-0.627,2.12-0.714,2.921-0.253c0.801,0.462,1.242,1.406,1.242,2.657
								c0,2.415-1.701,5.362-3.792,6.568C103.348,288.279,102.737,288.461,102.177,288.461z M105.398,279.144
								c-0.427,0-0.913,0.149-1.423,0.444l0,0c-1.887,1.089-3.421,3.747-3.421,5.925c0,0.974,0.309,1.689,0.871,2.013
								c0.559,0.322,1.334,0.235,2.179-0.252c1.886-1.089,3.421-3.747,3.421-5.925c0-0.975-0.309-1.689-0.871-2.013
								C105.932,279.207,105.678,279.144,105.398,279.144z M103.79,279.266h0.008H103.79z"/>
						</g>
						<g>
							<path d="M101.311,284.649l3.702-4.258c0.175-0.201,0.501-0.027,0.431,0.23l-1.607,5.938l-0.534-2.348L101.311,284.649z"/>
						</g>
						<g>
							<path d="M103.79,278.192c-0.205,0-0.371-0.166-0.371-0.371v-1.387c0-0.205,0.166-0.371,0.371-0.371s0.371,0.166,0.371,0.371
								v1.387C104.161,278.026,103.995,278.192,103.79,278.192z"/>
						</g>
						<g>
							<path d="M103.79,290.739c-0.205,0-0.371-0.166-0.371-0.371v-1.387c0-0.205,0.166-0.371,0.371-0.371s0.371,0.166,0.371,0.371
								v1.387C104.161,290.573,103.995,290.739,103.79,290.739z"/>
						</g>
						<g>
							<path d="M108.619,280.988c-0.128,0-0.253-0.067-0.322-0.186c-0.103-0.178-0.042-0.405,0.136-0.507l1.207-0.697
								c0.177-0.103,0.405-0.043,0.507,0.136c0.103,0.177,0.042,0.405-0.136,0.507l-1.207,0.697
								C108.746,280.971,108.682,280.988,108.619,280.988z"/>
						</g>
						<g>
							<path d="M97.754,287.262c-0.128,0-0.253-0.067-0.322-0.186c-0.103-0.177-0.042-0.405,0.136-0.507l1.207-0.698
								c0.174-0.103,0.405-0.044,0.507,0.136c0.103,0.177,0.042,0.405-0.136,0.507l-1.207,0.698
								C97.882,287.246,97.817,287.262,97.754,287.262z"/>
						</g>
					</g>
				</g>
			</g>
			<g>
				
					<text transform="matrix(0.4871 -0.2812 0 1 57.3535 340.1213)" style="fill:#455A64; font-family:'Rubik-Bold'; font-size:21.3132px;">FRIDAY</text>
			</g>
		</g>
		<g>
			<path style="opacity:0.8;fill:#27DEBF;" d="M157.076,287.513l29.708-17.145c2.546-1.47,4.611-5.046,4.611-7.986l0-139.191
				c0-2.941-2.064-4.132-4.611-2.662l-29.708,17.145c-2.546,1.47-4.611,5.046-4.611,7.986l0,139.191
				C152.465,287.791,154.529,288.983,157.076,287.513z"/>
			
				<text transform="matrix(0.6495 -0.375 0 1 172.7934 238.5075)" style="fill:#455A64; font-family:'Rubik-Bold'; font-size:8.5188px;">27°C</text>
			
				<text transform="matrix(0.6495 -0.375 0 1 172.7943 253.4904)" style="fill:#455A64; font-family:'Rubik-Bold'; font-size:8.5188px;">11°C</text>
			<g>
				
					<text transform="matrix(0.6495 -0.375 0 1 158.1842 246.944)" style="fill:#455A64; font-family:'Rubik-Bold'; font-size:8.5188px;">MAX</text>
			</g>
			<g>
				
					<text transform="matrix(0.6495 -0.375 0 1 158.1842 261.9284)" style="fill:#455A64; font-family:'Rubik-Bold'; font-size:8.5188px;">MIN</text>
			</g>
			<g>
				<g>
					<g id="XMLID_146_">
						<path style="fill:#FAFAFA;" d="M184.237,188.934l-2.182,1.212v-5.171c0-3.811-3.04-4.713-6.34-2.794l0,0
							c-3.3,1.918-5.976,6.563-5.976,10.374v0.698c-0.749-0.296-1.716-0.176-2.773,0.439h0c-2.375,1.38-4.3,4.723-4.3,7.465v0.317
							l-3.043,1.769c-1.564,0.909-2.832,3.11-2.832,4.916c0,1.806,1.268,2.533,2.832,1.624l24.614-14.307
							c1.564-0.909,2.832-3.11,2.832-4.916C187.069,188.752,185.801,188.025,184.237,188.934z"/>
					</g>
					<g>
						<g id="XMLID_142_">
							<g>
								<path id="XMLID_143_" style="fill:#FAFAFA;" d="M165.348,214.502C165.348,214.502,165.349,214.502,165.348,214.502
									c0.005,0.005,0.01,0.01,0.015,0.015c0.23,0.216,0.537,0.252,0.874,0.058c0.508-0.294,0.949-1.032,1.157-1.856
									c0.083-0.326,0.118-0.501,0.118-0.832v-0.266c0-0.898-0.751-2.25-1.102-2.748c-0.008-0.012-0.017-0.022-0.026-0.031
									c-0.001-0.001-0.001-0.001-0.002-0.001c-0.085-0.086-0.2-0.069-0.245,0.048c-0.303,0.768-1.185,3.088-1.185,4.053v0.266
									C164.952,213.805,165.104,214.259,165.348,214.502z"/>
							</g>
						</g>
						<g id="XMLID_138_">
							<g>
								<path id="XMLID_139_" style="fill:#FAFAFA;" d="M172.986,210.092C172.986,210.092,172.986,210.092,172.986,210.092
									c0.005,0.005,0.01,0.01,0.015,0.015c0.23,0.216,0.537,0.252,0.874,0.058c0.508-0.294,0.948-1.032,1.157-1.856
									c0.083-0.326,0.118-0.501,0.118-0.832v-0.266c0-0.898-0.751-2.25-1.102-2.748c-0.008-0.012-0.017-0.022-0.026-0.031
									c-0.001-0.001-0.001-0.001-0.002-0.001c-0.085-0.086-0.2-0.069-0.245,0.048c-0.303,0.768-1.185,3.088-1.185,4.053v0.266
									C172.59,209.395,172.742,209.849,172.986,210.092z"/>
							</g>
						</g>
						<g id="XMLID_134_">
							<g>
								<path id="XMLID_135_" style="fill:#FAFAFA;" d="M180.624,205.682C180.624,205.682,180.624,205.682,180.624,205.682
									c0.005,0.005,0.01,0.01,0.015,0.015c0.23,0.216,0.537,0.252,0.874,0.058c0.508-0.294,0.948-1.032,1.157-1.856
									c0.083-0.326,0.118-0.501,0.118-0.832v-0.266c0-0.898-0.751-2.25-1.102-2.748c-0.008-0.012-0.017-0.022-0.026-0.031
									c-0.001-0.001-0.001-0.001-0.002-0.002c-0.085-0.086-0.2-0.069-0.245,0.048c-0.303,0.768-1.185,3.088-1.185,4.053v0.266
									C180.227,204.986,180.379,205.439,180.624,205.682z"/>
							</g>
						</g>
					</g>
				</g>
			</g>
			<g>
				
					<text transform="matrix(0.4871 -0.2812 0 1 159.4774 176.256)" style="fill:#455A64; font-family:'Rubik-Bold'; font-size:24.8263px;">SAT</text>
			</g>
		</g>
		<g>
			<path style="opacity:0.8;fill:#27DEBF;" d="M204.656,260.035l29.708-17.145c2.547-1.47,4.611-5.046,4.611-7.986l0-139.191
				c0-2.94-2.064-4.132-4.611-2.662l-29.708,17.145c-2.547,1.47-4.611,5.046-4.611,7.986l0,139.191
				C200.045,260.313,202.11,261.505,204.656,260.035z"/>
			
				<text transform="matrix(0.6495 -0.375 0 1 220.3743 211.029)" style="fill:#455A64; font-family:'Rubik-Bold'; font-size:8.5188px;">27°C</text>
			
				<text transform="matrix(0.6495 -0.375 0 1 220.3752 226.0129)" style="fill:#455A64; font-family:'Rubik-Bold'; font-size:8.5188px;">11°C</text>
			<g>
				
					<text transform="matrix(0.6495 -0.375 0 1 205.766 219.465)" style="fill:#455A64; font-family:'Rubik-Bold'; font-size:8.5188px;">MAX</text>
			</g>
			<g>
				
					<text transform="matrix(0.6495 -0.375 0 1 205.766 234.4494)" style="fill:#455A64; font-family:'Rubik-Bold'; font-size:8.5188px;">MIN</text>
			</g>
			<g>
				<g>
					<g id="XMLID_10_">
						<path style="fill:#FAFAFA;" d="M231.818,166.454l-2.182,1.212v-5.171c0-3.811-3.04-4.713-6.34-2.794l0,0
							c-3.3,1.918-5.976,6.563-5.976,10.374v0.698c-0.749-0.296-1.716-0.176-2.773,0.438h0c-2.375,1.381-4.3,4.723-4.3,7.465v0.317
							l-3.043,1.769c-1.564,0.909-2.832,3.11-2.832,4.916c0,1.806,1.268,2.533,2.832,1.624l24.614-14.307
							c1.564-0.909,2.832-3.11,2.832-4.916C234.649,166.272,233.382,165.546,231.818,166.454z"/>
					</g>
				</g>
			</g>
			<g>
				
					<text transform="matrix(0.4871 -0.2812 0 1 205.7474 149.5119)" style="fill:#455A64; font-family:'Rubik-Bold'; font-size:24.8263px;">SUN</text>
			</g>
			<path style="fill:#FFBDA7;" d="M219.176,162.218c-1.612,2.234-2.654,4.986-2.707,7.483c-0.757-0.037-1.612,0.217-2.452,0.705
				c-1.582,0.915-2.954,2.564-3.809,4.394c-1.695-0.232-2.819-1.74-2.819-4.207c0-3.779,2.684-8.391,5.999-10.303
				C216.23,158.656,218.584,159.541,219.176,162.218z"/>
		</g>
		<g>
			<path style="opacity:0.8;fill:#27DEBF;" d="M252.237,232.575l29.708-17.145c2.546-1.47,4.611-5.046,4.611-7.986l0-139.191
				c0-2.94-2.064-4.132-4.611-2.662l-29.708,17.145c-2.547,1.47-4.611,5.046-4.611,7.986l0,139.191
				C247.626,232.853,249.69,234.045,252.237,232.575z"/>
			
				<text transform="matrix(0.6495 -0.375 0 1 267.9552 183.5524)" style="fill:#455A64; font-family:'Rubik-Bold'; font-size:8.5188px;">27°C</text>
			
				<text transform="matrix(0.6495 -0.375 0 1 267.9561 198.5344)" style="fill:#455A64; font-family:'Rubik-Bold'; font-size:8.5188px;">11°C</text>
			<g>
				
					<text transform="matrix(0.6495 -0.375 0 1 253.346 191.989)" style="fill:#455A64; font-family:'Rubik-Bold'; font-size:8.5188px;">MAX</text>
			</g>
			<g>
				
					<text transform="matrix(0.6495 -0.375 0 1 253.346 206.9724)" style="fill:#455A64; font-family:'Rubik-Bold'; font-size:8.5188px;">MIN</text>
			</g>
			<g>
				
					<text transform="matrix(0.4871 -0.2812 0 1 252.4453 122.6545)" style="fill:#455A64; font-family:'Rubik-Bold'; font-size:24.8263px;">MON</text>
			</g>
			<path style="fill:#FFBDA7;" d="M267.091,132.844c4.778-2.758,8.651-0.522,8.651,4.995c0,5.517-3.873,12.225-8.651,14.984
				c-4.778,2.758-8.651,0.522-8.651-4.995C258.44,142.311,262.313,135.602,267.091,132.844z"/>
		</g>
	</g>
</g>
<g id="Character">
	<g id="Character_8_">
		<g id="XMLID_1260_">
			<path id="XMLID_1273_" style="fill:#27DEBF;" d="M316.484,87.643c8.588,1.638,16.81,8.891,21.339,16.578
				c17.536-0.889,39.524,5.071,60.037,15.448l15.427-59.953C379.778,53.408,347.211,58.951,316.484,87.643z"/>
			<path id="XMLID_1272_" style="opacity:0.35;" d="M337.824,104.22c17.531-0.886,39.525,5.072,60.036,15.448l15.425-59.948
				C390.152,58.558,357.428,75.281,337.824,104.22z"/>
			<path id="XMLID_1265_" style="opacity:0.25;" d="M316.484,87.643c30.727-28.693,63.293-34.235,96.803-27.927
				c-23.137-1.162-55.857,15.564-75.464,44.505C333.294,96.535,325.073,89.282,316.484,87.643z"/>
			<path id="XMLID_1264_" style="fill:#27DEBF;" d="M484.588,130.898c-8.313-2.71-19.014-0.326-26.69,4.22
				c-14.929-9.242-37.063-14.635-60.037-15.448l15.426-59.953C445.679,70.366,471.526,90.938,484.588,130.898z"/>
			<path id="XMLID_1262_" style="opacity:0.45;" d="M457.897,135.116c-14.926-9.238-37.065-14.635-60.036-15.448l15.425-59.948
				C434.108,69.868,454.696,100.309,457.897,135.116z"/>
			<path id="XMLID_1261_" style="opacity:0.55;" d="M484.588,130.898c-13.062-39.96-38.909-60.532-71.301-71.181
				c20.825,10.149,41.407,40.591,44.611,75.401C465.574,130.572,476.276,128.188,484.588,130.898z"/>
		</g>
		<g id="XMLID_1092_">
			<path id="XMLID_1093_" style="fill:#455A64;" d="M409.937,72.772c0,0,0.148,0.012,0.435,0.036
				c0.138,0.01,0.311,0.023,0.515,0.039c0.141-0.001,0.327,0.004,0.447-0.014c0.667-0.023,0.484-0.356,0.622-0.683
				c0.169-0.683,0.411-1.659,0.701-2.829c0.567-2.345,1.268-5.486,1.875-8.651c0.308-1.581,0.582-3.171,0.815-4.668
				c0.115-0.749,0.247-1.467,0.334-2.158c0.093-0.69,0.181-1.342,0.262-1.943c0.085-0.601,0.133-1.159,0.191-1.65
				c0.056-0.491,0.101-0.921,0.128-1.277c0.065-0.71,0.087-1.119,0.087-1.119s-0.178,0.369-0.463,1.022
				c-0.148,0.325-0.317,0.723-0.505,1.18c-0.186,0.458-0.414,0.97-0.63,1.537c-0.22,0.566-0.457,1.18-0.709,1.828
				c-0.258,0.647-0.488,1.34-0.749,2.051c-0.519,1.423-1.046,2.948-1.539,4.482c-0.996,3.065-1.898,6.154-2.533,8.481
				c-0.311,1.165-0.57,2.136-0.751,2.816c-0.037,0.354-0.358,0.557,0.215,0.898c0.096,0.074,0.262,0.159,0.385,0.228
				c0.187,0.085,0.344,0.157,0.47,0.214C409.802,72.711,409.937,72.772,409.937,72.772z"/>
		</g>
		<g id="Character_3_">
			<g>
				<path id="XMLID_1407_" style="fill:#B16668;" d="M356.595,148.409c-6.837,2.271-8.509,2.773-13.245,10.138
					c-4.545,7.07-9.228,20.139-13.297,30.624c-7.52-2.137-20.434-9.087-25.523-12.432c-3.971-2.61-4.72-4.58-6.876-7.138
					c-2.169-2.573-6.168-8.23-7.092-4.74c-0.625,2.361,1.882,3.674,1.705,6.228c-0.139,1.361-8.344-3.793-11.587-6.061
					c-2.152-1.505-7.138,3.211-5.137,8.329c1.772,4.534,4.606,7.405,9.689,9.555c5.373,2.273,8.176,3.409,14.92,6.437
					c7.046,3.163,32.858,19.536,35.727,17.741c6.544-3.234,12.531-23.461,16.49-32.203
					C356.327,166.145,353.721,157.146,356.595,148.409z"/>
				<path id="XMLID_1406_" style="fill:#E0E0E0;" d="M358.246,147.568c-2.928,3.859-1.721,2.301-2.626,8.25
					c-0.73,4.8-10.812,50.972-19.94,52.887c-4.006,0.84-29.684-15.895-36.691-19.757c2.366-3.495,4.733-7.805,5.541-12.209
					c4.212,2.307,19.652,10.039,24.855,11.653c2.405-6.71,5.346-13.6,8.106-20.369C342.746,155.135,345.716,145.97,358.246,147.568z
					"/>
			</g>
			<g id="XMLID_1399_">
				
					<rect id="XMLID_1405_" x="387.218" y="356.722" transform="matrix(1 -0.0071 0.0071 1 -2.5931 2.7934)" style="fill:#B16668;" width="11.346" height="21.189"/>
				<polygon id="XMLID_1404_" style="fill:#B16668;" points="356.382,364.325 344.005,364.839 343.828,343.397 357.85,342.838 				
					"/>
				<path id="XMLID_1403_" style="fill:#263238;" d="M396.164,224.54c0.073,10.326,1.21,70.364,1.21,70.364
					c0.273,2.97,3.171,8.232,3.469,18.934c0.432,15.519-2.282,52.112-2.282,52.112s-4.576,3.012-11.387,0.23
					c0,0-8.925-51.576-10.972-66.926c-1.786-13.396-6.865-48.444-6.865-48.444l-6.982,45.622c0,0,1.31,7.292,0.721,16.485
					c-0.455,7.11-6.083,42.48-6.083,42.48s-5.65,2.657-13.063,0.211c0,0-2.387-55.017-2.558-61.537
					c-0.195-7.432,2.594-71.397,2.594-71.397L396.164,224.54z"/>
				<path id="XMLID_1402_" style="fill:#263238;" d="M387.247,372.351c0,0-0.01-1.621-0.012-1.621
					c-0.608-0.009-0.981,0.598-1.203,2.06c-0.159,1.046-0.307,1.837-0.641,3.214c-0.511,2.105-0.975,3.393-1.94,5.821
					c-1.576,3.964-2.912,5.445-6.552,10.091c-0.864,1.102-2.818,2.857-3.495,4.083c-0.677,1.226-0.894,4.624,0.276,5.392
					c4.304,2.825,10.809,2.859,15.401,1.478c3.532-1.062,6.067-3.908,6.628-7.554c0.161-1.047,0.091-2.116,0.204-3.169
					c0.257-2.403,1.447-4.605,2.795-6.611c0.782-1.164,1.633-2.3,2.154-3.602c0.936-2.339,0.154-4.957-0.471-7.275
					c-0.54-2.002-1.126-4.204-1.809-4.011c0,0.245,0.009,1.237,0.009,1.237c-0.817,0.919-3.09,1.841-5.659,1.958
					C391.272,373.918,387.243,373.617,387.247,372.351z"/>
				<path id="XMLID_1401_" style="fill:#263238;" d="M343.971,360.737c-0.643,0.027-1.285,1.221-2.693,2.767
					c-1.702,1.868-4.492,3.89-7.25,5.295c-4.622,2.355-13.615,5.991-17.683,7.858c-2.542,1.166-2.4,4.245,0.248,5.979
					c2.648,1.734,9.02,2.952,16.649,1.189c4.155-0.96,9.546-4.843,12.978-4.66c3.431,0.183,9.848,0.088,12.367-1.674
					c2.519-1.763,1.48-5.482,0.742-8.679c-0.805-3.489-1.475-9.354-2.631-9.108l-0.204,1.725c-1.473,2.266-11.645,2.83-12.511,0.668
					L343.971,360.737z"/>
				<path id="XMLID_1400_" d="M369.337,250.81c0,0-9.67-3.078-16.129-9.232c0,0,2.944,5.42,11.621,10.422l-1.789,39.956
					L369.337,250.81z"/>
			</g>
			<g id="XMLID_1394_">
				<path id="XMLID_1398_" style="fill:#F0F0F0;" d="M377.558,147.387c2.279,0.548,9.133,1.122,13.164,2.277
					c2.971,0.851,2.864,4.576,3.484,7.304c1.984,8.735,2.328,27.058,2.328,27.058l0.113,47.739
					c-7.39,5.383-37.759,8.116-53.311-3.241c0,0,1.902-55.886,1.902-63.797c0-7.911,4.395-17.414,16.532-18.119L377.558,147.387z"/>
			</g>
			<g id="XMLID_347_">
				<g id="XMLID_1386_">
					<path id="XMLID_1393_" style="fill:#263238;" d="M374.959,113.348c0,7.866-6.376,14.242-14.242,14.242
						c-7.866,0-14.242-6.376-14.242-14.242c0-7.866,6.376-14.242,14.242-14.242C368.582,99.106,374.959,105.482,374.959,113.348z"/>
					<path id="XMLID_1392_" style="fill:#263238;" d="M385.335,123.474c0,0-2.307,10.842-3.233,12.624
						c-0.925,1.781-2.838,2.288-2.838,2.288l0.161-7.627L385.335,123.474z"/>
					<path id="XMLID_1391_" style="fill:#263238;" d="M382.581,106.369c0,0,2.285-0.144,4.222,1.838
						c1.9,1.943,0.897,9.312-1.468,15.267l-4.347,0.499L382.581,106.369z"/>
					<path id="XMLID_1390_" style="fill:#B16668;" d="M379.685,123.977c0.872,0.521,2.115-1.154,3.19-2.279
						c1.075-1.125,4.584-2.662,6.335,1.027c1.784,3.759-1.545,8.726-4.308,9.593c-4.761,1.495-5.476-1.559-5.476-1.559l-0.352,17.7
						l0,0c-3.292,4.221-10.688,9.181-14.669,8.473c-3.178-0.565-3.871-5.934-0.833-9.453l0.013-5.227c0,0-4.314,0.655-6.418,0.33
						c-3.501-0.541-5.704-3.304-6.767-7.094c-1.706-6.088-2.354-11.003-0.906-22.976c1.586-13.123,16.85-13.259,25.092-8.071
						C382.828,109.628,379.685,123.977,379.685,123.977z"/>
					<path id="XMLID_1389_" style="fill:#263238;" d="M348.259,106.671c1.21,0.93,2.578,1.652,4.004,2.188
						c4.553,1.713,9.701,2.087,14.431,0.945c0.31-0.075,4.496-1.187,4.41-1.533c0.294,1.186,0.577,2.52,1.642,3.606
						c1.983,2.022,3.123,2.064,3.902,2.561c0.3,2.36,0.29,5.392,0.435,7.766c0.049,0.802,0.045,4.977,1.947,3.785
						c0.622-0.39,1.204-1.337,1.658-1.86c0.709-0.819,1.384-1.7,2.188-2.431c0.56-0.51,0.525-1.698,0.555-2.378
						c0.063-1.421-0.031-2.851-0.145-4.266c-0.118-1.468-0.367-2.927-0.492-4.389c-0.073-0.848,0.352-1.602,0.584-2.428
						c0.253-0.905,0.421-1.84,0.371-2.783c-0.157-2.938-2.41-5.434-5.05-6.732c-3.696-1.817-8.163-2.1-12.195-1.77
						c-3.266,0.268-6.439,0.271-9.708,0.22c-0.826-0.013-9.916-0.432-9.902-0.549c-0.23,1.995,0.242,4.065,1.315,5.763
						c-0.958,0.042-1.916,0.085-2.874,0.127c-0.417,0.019,0.72,1.962,0.794,2.058c0.521,0.671,1.123,1.277,1.777,1.817
						C348.02,106.484,348.138,106.579,348.259,106.671z"/>
					<path id="XMLID_1388_" style="fill:#263238;" d="M383.438,107.903l5.271-2.829c-0.748-1.51-2.534-2.101-3.99-1.32
						C383.264,104.535,382.69,106.393,383.438,107.903z"/>
					<path id="XMLID_1387_" style="fill:#9A4A4D;" d="M363.585,142.252c0,0,7.816-1.575,10.549-3.027
						c1.829-0.972,3.335-2.657,3.777-3.737c0,0-0.512,2.319-2.146,4.408c-1.998,2.555-12.18,4.436-12.18,4.436L363.585,142.252z"/>
				</g>
				<g id="XMLID_923_">
					<path id="XMLID_1384_" style="fill:#263238;" d="M364.379,121.203c0,0.962,0.751,1.74,1.677,1.737
						c0.926-0.002,1.676-0.784,1.676-1.747c0-0.962-0.75-1.74-1.676-1.737C365.129,119.46,364.379,120.242,364.379,121.203z"/>
					<path id="XMLID_1383_" style="fill:#263238;" d="M366.055,115.524l3.469,1.915c0.512-0.997,0.149-2.234-0.809-2.762
						C367.758,114.147,366.566,114.526,366.055,115.524z"/>
					<path id="XMLID_1382_" style="fill:#9A4A4D;" d="M364.244,132.609l-3.877,1.455c0.384,1.111,1.563,1.687,2.633,1.285
						C364.071,134.947,364.628,133.72,364.244,132.609z"/>
					<path id="XMLID_1369_" style="fill:#263238;" d="M350.54,116.92l3.164-2.437c-0.645-0.906-1.877-1.095-2.75-0.422
						C350.08,114.734,349.894,116.014,350.54,116.92z"/>
					<path id="XMLID_1014_" style="fill:#263238;" d="M351.254,120.888c0,0.931,0.726,1.683,1.622,1.68
						c0.896-0.003,1.622-0.759,1.622-1.689c0-0.931-0.726-1.683-1.622-1.681C351.98,119.201,351.254,119.957,351.254,120.888z"/>
					<polygon id="XMLID_924_" style="fill:#9A4A4D;" points="359.937,119.554 359.38,129.767 354.047,127.95 					"/>
				</g>
				<g id="XMLID_595_">
					<path id="XMLID_922_" style="fill:#27DEBF;" d="M358.015,155.808c0.995,2.364,2.83,3.328,6.158,3.701
						c3.328,0.373,7.371-1.275,9.205-3.203l-4.14-4.12l-5.247,3.954l-0.447-4.405L358.015,155.808z"/>
					<path id="XMLID_921_" style="opacity:0.2;" d="M358.015,155.808c0.995,2.364,2.83,3.328,6.158,3.701
						c3.328,0.373,7.371-1.275,9.205-3.203l-4.14-4.12l-5.247,3.954l-0.447-4.405L358.015,155.808z"/>
					<g id="XMLID_912_">
						<path id="XMLID_920_" style="fill:#27DEBF;" d="M360.622,154.518c0,0-0.82,2.281-0.547,4.429
							c0.293,2.3,1.478,3.691,1.478,3.691s1.321,1.049,3.577,0.389c1.763-1.626,3.539-4.234,3.404-7.406l-4.543,0.519
							L360.622,154.518z"/>
						<path id="XMLID_918_" style="fill:#27DEBF;" d="M361.544,162.638c0,0-6.771,37.372-7.046,40.388
							c-0.274,3.016,3.89,13.732,6.471,13.823c2.582,0.092,7.65-9.609,7.727-12.351c0.076-2.742-3.254-41.767-3.254-41.767
							L361.544,162.638z"/>
						<path id="XMLID_917_" style="opacity:0.2;" d="M365.442,162.732c0,0-1.709,1.537-3.899-0.093l-0.107,0.59
							c0,0,1.294,1.319,4.078,0.531L365.442,162.732z"/>
					</g>
					<g id="XMLID_891_">
						<g id="XMLID_904_">
							<path id="XMLID_906_" style="fill:#E0E0E0;" d="M363.992,156.14l15.159-11.56l0.06-3.032c0,0,3.55,0.942,4.342,7.167
								c-2.161,5.022-6.079,9.308-11.832,12.587l-3.186-5.682L363.992,156.14z"/>
							<path id="XMLID_905_" style="fill:#E0E0E0;" d="M363.585,143.006c0,0-3.563,1.654-5.084,4.163
								c-1.518,2.504-1.508,10.646-1.508,10.646l3.63-3.297l3.37,1.622c-0.323-3.191-0.42-8.661-0.42-8.661L363.585,143.006z"/>
						</g>
					</g>
				</g>
			</g>
		</g>
		<g id="XMLID_992_">
			<path style="fill:#B16668;" d="M426.377,197.973c-6.328-10.801-16.329-30.287-21.399-37.025
				c-7.074-9.4-6.665-9.213-13.254-11.268c-1.07,3.167-3.53,16.251,1.192,25.652l16.378,23.302
				c-6.656,1.588-18.558,4.699-22.586,3.871l-1.286,11.982c23.756-2.03,34.696-2.344,41.492-6.716
				C429.868,205.871,428.348,201.338,426.377,197.973z"/>
			<path id="XMLID_1026_" style="fill:#E0E0E0;" d="M393.831,176.997c-3.596-4.259-6.183-17.752-3.11-27.333
				c6.228,0.528,7.704,1.789,12.21,7.335c6.559,8.072,13.781,22.549,16.705,27.38c2.924,4.831,9.988,17.303,9.694,19.986
				c-0.294,2.684-2.53,5.275-8.317,6.873c-5.788,1.598-31.203,3.274-31.203,3.274s-1.217-5.197-1.102-12.02
				c7.641-1.489,14.591-2.931,19.091-4.208C407.799,198.284,397.03,180.786,393.831,176.997z"/>
			<path id="XMLID_1025_" style="fill:#B16668;" d="M387.779,202.708c-1.582-0.168-2.503-0.797-3.15-1.239
				c-1.052-0.719-2.042-1.53-3.145-2.174c-2.668-1.558-5.712-2.638-8.584-3.772c-0.284-0.112-0.588-0.226-0.888-0.169
				c-0.339,0.065-0.606,0.342-0.749,0.656c-0.142,0.314-0.18,0.664-0.212,1.008c-0.068,0.726,0.105,1.456,0.018,2.18
				C370.194,206.446,386.142,206.284,387.779,202.708z"/>
			<g>
				<path style="fill:#27DEBF;" d="M375.886,218.518l0.008,0.002l4.862-19.344l-5.843-1.469l-4.862,19.344
					c-0.162,0.452,0,0.995,0.525,1.504c0.977,0.947,2.829,1.412,4.137,1.04C375.415,219.394,375.815,218.993,375.886,218.518z"/>
				<path style="opacity:0.25;" d="M375.886,218.518l0.008,0.002l4.862-19.344l-5.843-1.469l-4.862,19.344
					c-0.162,0.452,0,0.995,0.525,1.504c0.977,0.947,2.829,1.412,4.137,1.04C375.415,219.394,375.815,218.993,375.886,218.518z"/>
				<path style="fill:#27DEBF;" d="M376.062,196.726c1.308-0.372,3.16,0.093,4.137,1.04c0.977,0.947,0.708,2.016-0.6,2.389
					s-3.16-0.093-4.137-1.04C374.485,198.167,374.754,197.098,376.062,196.726z"/>
				<path style="opacity:0.1;" d="M376.062,196.726c1.308-0.372,3.16,0.093,4.137,1.04c0.977,0.947,0.708,2.016-0.6,2.389
					s-3.16-0.093-4.137-1.04C374.485,198.167,374.754,197.098,376.062,196.726z"/>
			</g>
			<g id="XMLID_1003_">
				<g id="XMLID_1010_">
					<path id="XMLID_315_" style="fill:#263238;" d="M376.329,197.964l33.519-130.661c0.231-0.899,1.148-1.44,2.047-1.209
						c0.899,0.231,1.44,1.148,1.209,2.047l-33.519,130.661C378.739,199.484,376.564,198.887,376.329,197.964z"/>
				</g>
			</g>
			<path id="XMLID_999_" style="fill:#B16668;" d="M387.779,202.766c-1.606,0.665-4.714-0.005-7.896-0.226
				c-2.574,1.812-5.782-0.292-5.85-1.441l-0.696-2.459c0,0-2.663-0.138-3.88,1.007c-1.217,1.145-0.501,2.796-1.002,3.474
				c-0.501,0.678-1.074,1.895-1.289,2.754c-0.215,0.859-1.289,2.577-1.217,3.436c0.072,0.859-0.003,2.805-0.003,2.805
				s1.574,3.68,6.337,4.017s13.14-1.646,13.14-1.646L387.779,202.766z"/>
		</g>
		<g id="XMLID_418_">
			<path id="XMLID_890_" style="fill:#27DEBF;" d="M404.731,92.967c18.481,1.428,35.155,7.883,50.02,19.362
				c15.12,2.633,24.443,9.25,29.837,18.569c-11.649-40.652-40.187-63.175-71.301-71.181s-66.979-2.055-96.803,27.927
				c9.221-5.558,20.581-6.853,35.094-1.862C370.138,82.903,387.855,85.298,404.731,92.967z"/>
			<path id="XMLID_763_" style="opacity:0.15;" d="M351.575,85.783c18.564-2.882,36.282-0.482,53.156,7.185l8.555-33.247
				C377.74,50.574,351.575,85.783,351.575,85.783z"/>
			<path id="XMLID_761_" style="opacity:0.1;" d="M316.484,87.643c29.823-29.981,65.688-35.933,96.803-27.927
				c-35.544-9.146-61.709,26.065-61.709,26.065C337.065,80.79,325.705,82.085,316.484,87.643z"/>
			<path id="XMLID_437_" style="opacity:0.2;" d="M454.754,112.332c-14.868-11.484-31.543-17.934-50.022-19.364l8.555-33.248
				C448.832,68.866,454.754,112.332,454.754,112.332z"/>
			<path id="XMLID_420_" style="opacity:0.25;" d="M484.588,130.898c-11.649-40.652-40.187-63.175-71.301-71.181
				c35.544,9.146,41.465,52.612,41.465,52.612C469.871,114.963,479.195,121.579,484.588,130.898z"/>
		</g>
	</g>
</g>
</svg>
